<?xml version="1.0" standalone="no"?>
<!DOCTYPE svg PUBLIC "-//W3C//DTD SVG 20010904//EN"
 "http://www.w3.org/TR/2001/REC-SVG-20010904/DTD/svg10.dtd">
<svg version="1.0" xmlns="http://www.w3.org/2000/svg"
 width="300.000000pt" height="300.000000pt" viewBox="0 0 300.000000 300.000000"
 preserveAspectRatio="xMidYMid meet">
<metadata>
Created by potrace 1.11, written by Peter Selinger 2001-2013
</metadata>
<g transform="translate(0.000000,300.000000) scale(0.100000,-0.100000)"
fill="#000000" stroke="none">
<path d="M1245 2944 c-602 -105 -1087 -592 -1189 -1193 -21 -125 -21 -377 0
-502 103 -604 589 -1090 1193 -1193 125 -21 377 -21 502 0 604 103 1090 589
1193 1193 21 125 21 377 0 502 -55 324 -236 645 -482 855 -205 175 -456 295
-711 338 -118 20 -392 20 -506 0z m965 -829 l0 -155 -255 0 -255 0 0 -615 0
-615 -200 0 -200 0 0 615 0 615 -255 0 -255 0 0 155 0 155 710 0 710 0 0 -155z"/>
</g>
</svg>
