<?xml version="1.0" standalone="no"?>
<!DOCTYPE svg PUBLIC "-//W3C//DTD SVG 20010904//EN"
 "http://www.w3.org/TR/2001/REC-SVG-20010904/DTD/svg10.dtd">
<svg version="1.0" xmlns="http://www.w3.org/2000/svg"
 width="260.000000pt" height="260.000000pt" viewBox="0 0 260.000000 260.000000"
 preserveAspectRatio="xMidYMid meet">
<metadata>
Created by potrace 1.11, written by Peter Selinger 2001-2013
</metadata>
<g transform="translate(0.000000,260.000000) scale(0.100000,-0.100000)"
fill="#000000" stroke="none">
<path d="M1097 2374 c-638 -115 -1039 -759 -861 -1382 209 -733 1092 -1035
1704 -582 356 264 520 719 413 1149 -103 418 -451 741 -877 816 -108 18 -274
18 -379 -1z m-459 -816 c3 -26 1 -28 -37 -28 l-40 0 -3 -102 -3 -103 -35 0
-35 0 -3 103 -3 102 -39 0 c-35 0 -40 3 -40 23 0 13 3 27 7 31 4 3 57 5 117 4
l111 -3 3 -27z m257 2 c0 -24 -4 -25 -65 -30 -57 -4 -65 -8 -65 -25 0 -17 7
-20 50 -21 46 -1 50 -3 53 -27 3 -25 1 -26 -50 -29 -45 -3 -53 -6 -53 -23 0
-18 8 -20 68 -23 68 -3 68 -3 65 -30 l-3 -27 -100 0 -100 0 -3 119 c-1 66 0
126 2 133 4 11 29 13 103 11 97 -3 98 -3 98 -28z m263 -2 l3 -28 -65 0 c-64 0
-66 -1 -66 -26 0 -24 2 -25 48 -23 45 3 47 2 50 -24 3 -26 2 -27 -47 -27 -48
0 -51 -2 -51 -25 0 -24 2 -25 66 -25 l65 0 -3 -27 -3 -28 -100 0 -100 0 -3
119 c-1 66 0 126 2 133 4 11 29 13 103 11 l98 -3 3 -27z m130 -75 l3 -103 65
0 65 0 -3 -27 -3 -28 -100 0 -100 0 -3 119 c-1 66 0 126 3 134 3 8 17 12 37
10 l33 -3 3 -102z m247 -28 l0 -130 -35 0 -35 0 -3 119 c-1 66 0 126 3 134 3
8 17 12 37 10 l33 -3 0 -130z m157 118 c8 -10 30 -45 49 -78 l34 -60 5 75 5
75 30 0 30 0 0 -130 0 -130 -33 -3 c-42 -4 -53 5 -97 84 -20 35 -37 64 -38 64
-2 0 -1 -31 1 -70 4 -67 4 -69 -21 -76 -48 -11 -49 -6 -48 126 1 68 4 127 7
132 9 15 61 8 76 -9z m402 5 c14 -6 33 -22 41 -35 15 -23 15 -24 -17 -37 -30
-13 -35 -13 -51 5 -22 23 -45 24 -69 2 -23 -21 -25 -95 -2 -117 18 -19 55 -21
72 -4 20 20 14 30 -15 26 -24 -3 -28 1 -31 25 l-3 27 65 0 66 0 0 -70 c0 -75
-14 -95 -50 -72 -10 6 -22 7 -31 1 -22 -14 -77 -11 -109 6 -84 43 -78 212 8
244 37 13 96 13 126 -1z m-1114 -354 c0 -8 -7 -14 -15 -14 -15 0 -21 21 -9 33
10 9 24 -2 24 -19z m60 -55 c0 -39 4 -69 10 -69 6 0 10 -7 10 -16 0 -10 -7
-14 -22 -12 -21 3 -23 9 -26 77 -3 79 2 106 18 96 5 -3 10 -37 10 -76z m680
56 c0 -8 -6 -15 -14 -15 -17 0 -28 14 -19 24 12 12 33 6 33 -9z m-1132 -7 c-3
-7 -23 -14 -46 -16 -34 -3 -42 -7 -42 -23 0 -15 7 -19 35 -19 19 0 35 -4 35
-10 0 -5 -15 -10 -34 -10 -32 0 -35 -3 -38 -32 -6 -62 -23 -33 -26 45 l-3 77
61 0 c45 0 61 -3 58 -12z m800 0 c17 -17 15 -53 -3 -68 -13 -11 -12 -16 5 -40
15 -20 17 -31 9 -36 -11 -6 -48 31 -49 49 0 4 -9 7 -19 7 -14 0 -21 -8 -23
-27 -2 -16 -7 -28 -13 -28 -11 0 -20 118 -11 141 7 18 87 19 104 2z m-707 -28
c14 -8 19 -21 19 -50 0 -21 5 -42 10 -45 20 -12 0 -22 -44 -22 -72 -2 -90 46
-26 70 17 6 30 15 30 19 0 12 -38 10 -46 -3 -4 -8 -10 -7 -18 1 -8 8 -6 15 8
26 23 17 40 18 67 4z m146 -3 c6 -4 14 -3 18 3 9 15 42 12 60 -6 11 -11 15
-30 13 -60 -4 -58 -22 -57 -26 1 -2 36 -7 45 -21 45 -22 0 -31 -19 -31 -67 0
-23 -4 -33 -12 -31 -8 3 -12 18 -10 39 3 46 -11 68 -35 53 -12 -7 -19 -26 -21
-53 -5 -65 -22 -48 -22 23 l0 64 38 -2 c20 -1 43 -5 49 -9z m153 -58 c0 -44
-3 -60 -12 -57 -14 5 -23 90 -14 115 12 31 26 -1 26 -58z m128 31 c20 -47 27
-50 35 -12 9 37 22 56 35 48 7 -4 0 -34 -21 -84 -28 -67 -36 -77 -60 -80 -19
-2 -27 1 -27 12 0 10 6 13 15 10 26 -10 29 26 6 80 -24 59 -25 66 -10 66 6 0
18 -18 27 -40z m405 28 c9 -7 18 -24 19 -38 3 -23 -1 -26 -42 -31 -33 -4 -40
-7 -27 -13 9 -5 28 -5 42 -2 27 7 32 -3 13 -22 -31 -31 -84 -5 -94 44 -10 54
46 93 89 62z m128 2 c10 -6 19 -17 19 -25 0 -17 -16 -20 -25 -5 -3 6 -15 10
-25 10 -21 0 -37 -40 -25 -59 8 -15 38 -14 53 1 16 16 29 1 16 -20 -14 -21
-47 -27 -73 -12 -16 8 -21 21 -21 50 0 59 34 84 81 60z m77 -60 c-4 -78 -28
-80 -28 -2 0 32 3 62 7 66 15 14 24 -14 21 -64z m132 50 c5 -8 10 -32 10 -52
0 -41 -26 -64 -61 -55 -15 4 -19 0 -19 -19 0 -15 -6 -24 -15 -24 -12 0 -15 16
-15 84 l0 84 45 -2 c28 -1 50 -7 55 -16z m130 0 c11 -11 20 -29 20 -40 0 -17
-7 -20 -46 -20 -30 0 -43 -4 -38 -11 4 -7 21 -9 40 -6 24 4 34 2 34 -8 0 -27
-60 -34 -84 -9 -21 20 -20 73 1 96 21 24 48 23 73 -2z m119 11 c9 -6 11 -16 6
-27 -5 -13 -9 -15 -12 -6 -5 14 -43 17 -43 3 0 -5 13 -12 30 -16 37 -8 50 -43
24 -62 -29 -22 -84 -14 -84 12 0 10 10 12 37 8 26 -4 34 -3 29 5 -4 7 -15 12
-25 12 -38 0 -56 50 -23 69 21 13 43 13 61 2z"/>
<path d="M1310 1179 c0 -16 5 -20 27 -17 17 2 29 10 31 21 3 13 -3 17 -27 17
-25 0 -31 -4 -31 -21z"/>
<path d="M635 1110 c-3 -5 3 -10 14 -10 11 0 23 5 26 10 3 6 -3 10 -14 10 -11
0 -23 -4 -26 -10z"/>
<path d="M1455 1160 c-4 -6 7 -10 25 -10 18 0 29 4 25 10 -3 6 -15 10 -25 10
-10 0 -22 -4 -25 -10z"/>
<path d="M1784 1156 c-10 -26 1 -51 22 -54 24 -3 38 20 29 49 -7 22 -43 25
-51 5z"/>
<path d="M1915 1160 c-4 -6 7 -10 25 -10 18 0 29 4 25 10 -3 6 -15 10 -25 10
-10 0 -22 -4 -25 -10z"/>
</g>
</svg>
